<svg width="20" height="20" viewBox="0 0 20 20" fill="none" xmlns="http://www.w3.org/2000/svg">
<g id="check-square">
<path id="check-square_2" d="M14.6917 2.5H5.31667C3.44167 2.5 2.5 3.43333 2.5 5.30833V14.6833C2.5 16.5583 3.44167 17.5 5.31667 17.5H14.6917C16.5667 17.5 17.5 16.5583 17.5 14.6833V5.30833C17.5 3.43333 16.5667 2.5 14.6917 2.5ZM13.3584 8.50001L9.46665 12.3833C9.34999 12.5083 9.19168 12.5667 9.02501 12.5667C8.86668 12.5667 8.70832 12.5083 8.58332 12.3833L6.64164 10.4417C6.39998 10.2 6.39998 9.79998 6.64164 9.55831C6.88331 9.31664 7.28336 9.31664 7.52502 9.55831L9.02501 11.0583L12.475 7.61668C12.7166 7.36668 13.1167 7.36668 13.3584 7.61668C13.6 7.85835 13.6 8.25001 13.3584 8.50001Z" fill="#26B7CD"/>
</g>
</svg>
