<?xml version="1.0" encoding="UTF-8"?>
<svg version="1.1" viewBox="0 0 2048 2048" width="1280" height="1280" xmlns="http://www.w3.org/2000/svg">
<path transform="translate(1720,256)" d="m0 0h14l16 3 15 8 12 11 9 14 4 11 2 11v10l-2 13-5 12-7 11-11 12-1404 1404-10 7-11 5-10 3-13 1-17-2-14-6-12-9-8-9-8-14-4-15v-18l4-15 7-13 11-12 174-174v-2l-24-15-33-22-20-14-18-13-30-23-17-14-11-9-13-11-14-12-13-12-12-11-26-24-34-34-7-8-16-17-9-10-11-12-9-11-10-11-11-14-11-13-20-26-15-20-10-14-14-20-15-23-14-22-9-16-5-13-1-4v-24l6-15 11-20 11-17 22-33 13-18 12-17 16-21 11-14 13-16 9-11 11-13 7-8 12-14 11-12 7-8 9-9 1-2h2l2-4 51-51 8-7 15-14 8-7 30-26 11-9 14-11 16-13 19-14 18-13 23-16 21-14 40-25 28-16 24-13 31-16 28-13 29-13 38-15 36-13 41-13 45-12 40-9 43-8 42-6 37-4 43-3 27-1h64l41 2 38 3 42 5 49 8 39 8 48 12 43 13 44 15 33 13 31 13 9 4 5-1 209-209 10-7 12-5zm-730 256-37 2-34 3-39 5-40 7-41 9-31 8-33 10-30 10-37 14-35 15-30 14-30 15-46 26-26 16-33 22-20 14-19 14-13 10-14 11-16 13-11 9-15 13-11 10-8 7-12 11-17 16-37 37-7 8-7 7-7 8-11 12-9 11-9 10-8 10-11 13-28 36-26 36-11 17-1 4 16 24 13 18 9 12 13 17 13 16 9 11 12 14 9 11 13 14 7 8 12 13 15 16 34 34 8 7 10 10 8 7 20 18 11 9 13 11 11 9 36 28 17 12 18 13 26 17 17 11 32 19 6 4 4-2 159-159-2-5-13-20-11-19-11-23-10-25-9-27-6-24-6-36-2-22v-45l3-29 4-24 6-25 8-26 8-21 12-26 8-15 11-18 13-19 11-14 8-10 14-15 9-10 8-7 13-12 17-13 18-13 25-15 23-12 23-10 25-9 30-8 27-5 23-3 15-1h41l24 2 26 4 27 6 26 8 24 9 24 11 24 13 19 12 7 5 4-2 127-127-1-3-37-14-46-15-41-11-40-9-38-7-38-5-28-3-28-2-23-1zm14 256-25 3-25 6-24 8-24 11-22 13-19 14-14 12-20 20-11 14-10 14-12 20-12 25-10 30-5 23-3 28v31l3 25 6 26 8 24 9 20 8 15 4 2 346-346v-3l-29-15-15-6-23-7-25-5-19-2z" fill="#676F83"/>
<path transform="translate(1701,617)" d="m0 0 5 3 18 14 14 11 14 12 11 9 11 10 11 9 9 9 8 7 15 14 17 17 6 5v2l4 2v2l4 2 7 8 14 14 7 8 15 16 7 8 13 15 12 14 18 22 11 14 10 13 16 21 12 17 15 22 14 21 12 19 11 19 6 17v22l-5 15-12 21-15 24-21 31-13 18-11 15-12 16-11 14-16 20-11 13-12 14-9 11-15 16-7 8-15 16-9 9-3 4h-2l-2 4-20 20-8 7-13 13-8 7-15 14-8 7-14 12-11 9-13 11-14 11-15 12-12 9-19 14-20 14-33 22-19 12-15 9-26 15-18 10-33 17-16 8-32 15-41 17-35 13-36 12-30 9-42 11-41 9-46 8-45 6-43 4-33 2-35 1h-26l-38-1-44-3-38-4-37-5-44-8-41-9-42-11-23-7v-3l13-12 67-67 5-6 6-5 5-5 6-7 11 1 40 8 45 7 35 4 41 3 27 1h33l33-1 51-4 40-5 42-7 41-9 42-11 30-9 34-12 31-12 26-11 35-16 22-11 22-12 27-15 34-21 33-22 20-14 19-14 18-14 16-13 22-18 10-9 8-7 14-12 9-9 8-7 25-25h2l2-4 24-24 7-8 13-14 7-8 8-10h2l2-4 11-13 9-11 13-16 13-17 28-38 8-12 7-10-1-5-15-22-13-18-9-12-10-13-11-14-13-16-12-14-9-11-10-11-7-8-18-20-11-11-7-8-27-27-8-7-10-10-8-7-12-11-8-7-26-22-14-11-16-13-16-12-7-5 1-3 8-7 79-79z" fill="#676F83"/>
<path transform="translate(1393,925)" d="m0 0h2l6 27 5 33 2 30v18l-2 33-5 32-5 22-7 24-9 25-11 24-12 23-12 19-14 20-13 16-9 10-7 8-19 19-11 9-13 11-18 13-19 12-21 12-25 12-29 11-23 7-32 7-29 4-30 2h-16l-32-2-33-5-23-5-3-1 1-4 8-7 18-18 5-6 7-6 5-5 4-5 8-7 7-7 5-6 8-7 11-11 5-6 7-6 2-3h2l1-3 8-7 5-4 19-2 29-6 19-6 24-10 19-10 21-14 14-11 13-12 3-3h2l2-4 12-13 12-16 11-17 12-23 9-23 7-24 5-27 2-15 31-31 5-6 7-6 12-12 5-6 7-6 5-6 8-7 31-31z" fill="#676F83"/>
</svg>
